<?xml version="1.0" encoding="UTF-8"?>
<!-- Generator: Adobe Illustrator 13.0.0, SVG Export Plug-In . SVG Version: 6.00 Build 14948)  -->
<!DOCTYPE svg PUBLIC "-//W3C//DTD SVG 1.1//EN" "http://www.w3.org/Graphics/SVG/1.1/DTD/svg11.dtd">
<svg version="1.1" id="Layer_1" xmlns="http://www.w3.org/2000/svg" xmlns:xlink="http://www.w3.org/1999/xlink" x="0px" y="0px" width="338.019px" height="163.283px" viewBox="0 0 338.019 163.283" enable-background="new 0 0 338.019 163.283" xml:space="preserve">
<g>
	<polygon fill="#EA1D25" points="0,163.215 163.226,163.215 163.226,0 0,0 0,163.215"/>
	<path fill="#FFFFFF" d="M81.611,16.764c23.196,0,47.983,41.47,47.983,77.381c0,28.208-16.582,52.271-47.983,52.271   c-31.425,0-47.964-24.063-47.964-52.271C33.647,58.233,58.412,16.764,81.611,16.764"/>
	<polygon fill="#EA1D25" points="338.019,163.283 174.81,163.283 174.81,0.07 338.019,0.07 338.019,163.283"/>
	<polygon fill="#FFFFFF" points="186.757,62.331 203.943,62.331 209.556,85.382 209.649,85.382 215.269,62.331 232.441,62.331 232.441,101.513 221.022,101.513 221.022,76.365 220.902,76.365 214.108,101.513 205.097,101.513 198.29,76.365 198.19,76.365 198.19,101.513 186.757,101.513 186.757,62.331"/>
	<polygon fill="#FFFFFF" points="250.001,72.366 239.029,72.366 239.029,62.331 273.067,62.331 273.067,72.366 262.068,72.366 262.068,101.513 250.001,101.513 250.001,72.366"/>
	<path fill="#FFFFFF" d="M302.212,76.913c-0.22-1.412-1.328-5.757-6.3-5.757c-5.667,0-7.482,5.495-7.482,10.775   c0,5.272,1.815,10.752,7.482,10.752c4.044,0,5.646-2.853,6.354-6.55h11.86c0,7.905-6.428,16.321-17.9,16.321   c-12.688,0-19.862-8.947-19.862-20.523c0-12.36,7.789-20.528,19.862-20.528c10.766,0.043,16.698,5.693,17.72,15.509H302.212   L302.212,76.913z"/>
</g>
</svg>