<?xml version="1.0" encoding="utf-8"?>
<!-- Generator: Adobe Illustrator 16.0.0, SVG Export Plug-In . SVG Version: 6.00 Build 0)  -->
<!DOCTYPE svg PUBLIC "-//W3C//DTD SVG 1.1//EN" "http://www.w3.org/Graphics/SVG/1.1/DTD/svg11.dtd">
<svg version="1.1" id="Layer_1" xmlns="http://www.w3.org/2000/svg" xmlns:xlink="http://www.w3.org/1999/xlink" x="0px" y="0px"
	 width="587.334px" height="99.211px" viewBox="0 0 587.334 99.211" enable-background="new 0 0 587.334 99.211"
	 xml:space="preserve">
<g>
	<g>
		<g>
			<path fill="#231F20" d="M468.609,56.285c-2.223,2.564-4.582,4.248-8.423,4.248c-5.508,0-9.385-4.61-9.385-10.511
				c0-5.847,3.877-10.511,9.385-10.511c3.313,0,5.753,1.348,7.82,3.581l8.007-6.28c-3.445-4.271-8.279-7.255-15.713-7.255
				c-11.917,0-20.742,8.998-20.742,20.464c0,11.859,9.052,20.459,20.295,20.459c8.17,0,13.08-3.315,16.717-7.946L468.609,56.285z"/>
			<g>
				<g>
					<path fill="#231F20" d="M130.869,39.899h-11.804v-9.547h34.512v9.547h-11.805v29.79h-10.904V39.899z"/>
					<path fill="#231F20" d="M240.071,30.352h10.903v14.719h13.996V30.352h10.904v39.337H264.97V54.741h-13.996v14.948h-10.903
						V30.352z"/>
					<path fill="#231F20" d="M284.362,30.352h10.172l16.189,20.793V30.352h10.795v39.337h-9.556l-16.809-21.58v21.58h-10.792V30.352
						z"/>
					<path fill="#231F20" d="M327.866,50.021c0-11.301,9.105-20.464,21.246-20.464c12.139,0,21.133,9.051,21.133,20.464
						c0,11.296-9.103,20.459-21.247,20.459C336.859,70.481,327.866,61.431,327.866,50.021z M359.116,50.021
						c0-5.679-4.104-10.622-10.118-10.622c-5.957,0-9.947,4.831-9.947,10.622c0,5.67,4.102,10.623,10.062,10.623
						C355.125,60.644,359.116,55.81,359.116,50.021z"/>
					<path fill="#231F20" d="M376.595,30.352h10.175l16.188,20.793V30.352h10.793v39.337h-9.557l-16.807-21.58v21.58h-10.793V30.352
						z"/>
					<path fill="#231F20" d="M422.237,30.352h10.96v39.337h-10.96V30.352z"/>
					<path fill="#231F20" d="M479.372,50.021c0-11.301,9.104-20.464,21.247-20.464c12.141,0,21.134,9.051,21.134,20.464
						c0,11.296-9.104,20.459-21.246,20.459C488.365,70.481,479.372,61.431,479.372,50.021z M510.621,50.021
						c0-5.679-4.1-10.622-10.114-10.622c-5.962,0-9.95,4.831-9.95,10.622c0,5.67,4.103,10.623,10.063,10.623
						C506.632,60.644,510.621,55.81,510.621,50.021z"/>
					<path fill="#231F20" d="M528.104,30.352h10.902v29.787h19.055v9.55h-29.957V30.352z"/>
				</g>
				<path fill="#231F20" d="M225.779,56.285c-2.222,2.564-4.581,4.248-8.419,4.248c-5.507,0-9.386-4.61-9.386-10.511
					c0-5.847,3.879-10.511,9.386-10.511c3.312,0,5.751,1.348,7.822,3.582l7.999-6.281c-3.442-4.271-8.276-7.255-15.708-7.255
					c-11.917,0-20.741,8.998-20.741,20.464c0,11.859,9.05,20.459,20.291,20.459c8.172,0,13.082-3.315,16.718-7.948L225.779,56.285z"
					/>
				<path fill="#231F20" d="M159.302,30.342h31.644v9.27h-20.854v5.963h18.888v8.601h-18.888v6.241h21.135v9.271h-31.925V30.342z"/>
			</g>
		</g>
		<g>
			<polygon fill="#EC1C24" points="99.368,79.536 79.696,99.207 6.926,99.211 1,93.285 1,20.515 20.675,0.841 93.444,0.841 
				99.368,6.763 			"/>
			<polygon fill="#FFFFFF" points="93.444,0.841 71.319,22.967 71.319,55.259 53.194,30.353 14.99,30.353 14.99,38.181 
				26.251,38.181 26.251,68.033 1.001,93.285 1.001,99.211 6.926,99.207 34.739,71.393 34.739,38.181 45.995,38.181 45.995,69.699 
				54.375,69.699 54.375,44.792 72.499,69.699 79.696,69.699 79.696,26.436 99.368,6.763 99.368,0.841 			"/>
		</g>
	</g>
</g>
</svg>
